# xmcd
#
# Track frame offsets:
#	150
#	33589
#	58407
#	75275
#	104372
#	133932
#	153502
#
# Disc length: 2898 seconds
#
# Revision: 1
# Processed by: cddbd v1.5.2PL0 Copyright (c) Steve Scherf et al.
# Submitted via: audiograbber 1.83.01
#
DISCID=5a0b5007
DTITLE=Grateful Dead - 72-11-17 Century II Convention Hall, Wichita KS
DYEAR=1900
DGENRE=
TTITLE0=China Cat Sunflower
TTITLE1=I Know You Rider
TTITLE2=Around and Around
TTITLE3=Casey Jones
TTITLE4=Cumberland Blues
TTITLE5=El Paso
TTITLE6=He's Gone
EXTD=
EXTT0=
EXTT1=
EXTT2=
EXTT3=
EXTT4=
EXTT5=
EXTT6=
PLAYORDER=
